G04 EAGLE Gerber RS-274X export*
G75*
%MOMM*%
%FSLAX34Y34*%
%LPD*%
%INBottom Copper*%
%IPPOS*%
%AMOC8*
5,1,8,0,0,1.08239X$1,22.5*%
G01*
%ADD10C,1.879600*%
%ADD11C,0.254000*%
%ADD12C,0.711200*%

G36*
X317521Y11433D02*
X317521Y11433D01*
X317583Y11433D01*
X319241Y11542D01*
X319284Y11551D01*
X319328Y11551D01*
X319486Y11583D01*
X322689Y12441D01*
X322768Y12473D01*
X322850Y12496D01*
X322973Y12557D01*
X322983Y12561D01*
X322987Y12564D01*
X322995Y12568D01*
X325866Y14225D01*
X325934Y14277D01*
X326008Y14320D01*
X326111Y14411D01*
X326119Y14417D01*
X326122Y14421D01*
X326129Y14427D01*
X328473Y16771D01*
X328526Y16839D01*
X328586Y16900D01*
X328661Y17014D01*
X328668Y17023D01*
X328670Y17027D01*
X328675Y17034D01*
X330332Y19905D01*
X330366Y19984D01*
X330408Y20059D01*
X330452Y20188D01*
X330456Y20198D01*
X330456Y20203D01*
X330459Y20211D01*
X331317Y23414D01*
X331323Y23458D01*
X331337Y23500D01*
X331358Y23659D01*
X331383Y24043D01*
X331467Y25317D01*
X331465Y25338D01*
X331469Y25400D01*
X331469Y254000D01*
X331467Y254021D01*
X331467Y254083D01*
X331358Y255741D01*
X331349Y255784D01*
X331349Y255828D01*
X331317Y255986D01*
X330459Y259189D01*
X330427Y259268D01*
X330404Y259350D01*
X330343Y259473D01*
X330339Y259483D01*
X330336Y259487D01*
X330332Y259495D01*
X328675Y262366D01*
X328623Y262434D01*
X328580Y262508D01*
X328489Y262611D01*
X328483Y262619D01*
X328479Y262622D01*
X328473Y262629D01*
X326129Y264973D01*
X326061Y265026D01*
X326000Y265086D01*
X325886Y265161D01*
X325877Y265168D01*
X325873Y265170D01*
X325866Y265175D01*
X322995Y266832D01*
X322916Y266866D01*
X322841Y266908D01*
X322712Y266952D01*
X322702Y266956D01*
X322697Y266956D01*
X322689Y266959D01*
X319486Y267817D01*
X319442Y267823D01*
X319400Y267837D01*
X319241Y267858D01*
X317583Y267967D01*
X317562Y267965D01*
X317500Y267969D01*
X86205Y267969D01*
X86087Y267954D01*
X85968Y267947D01*
X85930Y267934D01*
X85890Y267929D01*
X85779Y267886D01*
X85665Y267849D01*
X85631Y267827D01*
X85594Y267812D01*
X85498Y267742D01*
X85397Y267678D01*
X85369Y267649D01*
X85337Y267626D01*
X85261Y267534D01*
X85179Y267447D01*
X85159Y267411D01*
X85134Y267381D01*
X85083Y267273D01*
X85025Y267168D01*
X85015Y267129D01*
X84998Y267093D01*
X84976Y266976D01*
X84946Y266860D01*
X84946Y266820D01*
X84939Y266781D01*
X84946Y266661D01*
X84946Y266542D01*
X84956Y266503D01*
X84958Y266463D01*
X84995Y266350D01*
X85025Y266234D01*
X85044Y266199D01*
X85056Y266161D01*
X85120Y266060D01*
X85178Y265955D01*
X85205Y265926D01*
X85227Y265892D01*
X85314Y265810D01*
X85395Y265723D01*
X85429Y265701D01*
X85458Y265674D01*
X85563Y265616D01*
X85663Y265552D01*
X85719Y265530D01*
X85737Y265520D01*
X85756Y265515D01*
X85813Y265493D01*
X87133Y265064D01*
X88807Y264211D01*
X90328Y263106D01*
X91656Y261778D01*
X92761Y260257D01*
X93614Y258583D01*
X94195Y256796D01*
X94235Y256539D01*
X83820Y256539D01*
X83702Y256524D01*
X83583Y256517D01*
X83545Y256504D01*
X83505Y256499D01*
X83394Y256456D01*
X83281Y256419D01*
X83247Y256397D01*
X83209Y256382D01*
X83113Y256312D01*
X83012Y256249D01*
X82984Y256219D01*
X82952Y256195D01*
X82876Y256104D01*
X82794Y256017D01*
X82775Y255982D01*
X82749Y255951D01*
X82698Y255843D01*
X82641Y255739D01*
X82630Y255699D01*
X82613Y255663D01*
X82591Y255546D01*
X82561Y255431D01*
X82557Y255370D01*
X82553Y255350D01*
X82555Y255330D01*
X82551Y255270D01*
X82551Y253999D01*
X81280Y253999D01*
X81162Y253984D01*
X81043Y253977D01*
X81005Y253964D01*
X80964Y253959D01*
X80854Y253915D01*
X80741Y253879D01*
X80706Y253857D01*
X80669Y253842D01*
X80573Y253772D01*
X80472Y253709D01*
X80444Y253679D01*
X80411Y253655D01*
X80336Y253564D01*
X80254Y253477D01*
X80234Y253442D01*
X80209Y253410D01*
X80158Y253303D01*
X80100Y253198D01*
X80090Y253159D01*
X80073Y253123D01*
X80051Y253006D01*
X80021Y252891D01*
X80017Y252830D01*
X80013Y252810D01*
X80015Y252790D01*
X80011Y252730D01*
X80011Y242315D01*
X79754Y242355D01*
X77967Y242936D01*
X76293Y243789D01*
X74772Y244894D01*
X73444Y246222D01*
X72280Y247824D01*
X72248Y247858D01*
X72201Y247928D01*
X72185Y247942D01*
X72173Y247959D01*
X72086Y248031D01*
X72063Y248055D01*
X72041Y248069D01*
X71963Y248139D01*
X71944Y248148D01*
X71928Y248162D01*
X71803Y248221D01*
X71802Y248221D01*
X71794Y248226D01*
X71789Y248227D01*
X71679Y248284D01*
X71659Y248288D01*
X71640Y248297D01*
X71504Y248323D01*
X71369Y248354D01*
X71348Y248353D01*
X71327Y248357D01*
X71190Y248348D01*
X71051Y248344D01*
X71031Y248339D01*
X71010Y248337D01*
X70879Y248295D01*
X70746Y248256D01*
X70728Y248246D01*
X70708Y248239D01*
X70591Y248165D01*
X70472Y248095D01*
X70457Y248080D01*
X70439Y248069D01*
X70344Y247968D01*
X70246Y247871D01*
X70235Y247853D01*
X70221Y247837D01*
X70154Y247716D01*
X70084Y247598D01*
X70078Y247577D01*
X70067Y247559D01*
X70033Y247425D01*
X69994Y247292D01*
X69993Y247271D01*
X69988Y247251D01*
X69978Y247090D01*
X69978Y157527D01*
X69990Y157428D01*
X69993Y157329D01*
X70010Y157271D01*
X70018Y157211D01*
X70054Y157119D01*
X70082Y157024D01*
X70112Y156972D01*
X70135Y156915D01*
X70193Y156835D01*
X70243Y156750D01*
X70309Y156675D01*
X70321Y156658D01*
X70331Y156650D01*
X70349Y156629D01*
X71413Y155566D01*
X72264Y153512D01*
X72264Y151288D01*
X71413Y149234D01*
X69841Y147662D01*
X67787Y146811D01*
X65563Y146811D01*
X63509Y147662D01*
X61937Y149234D01*
X61086Y151288D01*
X61086Y153512D01*
X61937Y155566D01*
X63001Y156629D01*
X63061Y156707D01*
X63129Y156780D01*
X63158Y156833D01*
X63195Y156880D01*
X63235Y156971D01*
X63283Y157058D01*
X63298Y157117D01*
X63322Y157172D01*
X63337Y157270D01*
X63362Y157366D01*
X63368Y157466D01*
X63372Y157486D01*
X63370Y157499D01*
X63372Y157527D01*
X63372Y242305D01*
X63366Y242355D01*
X63368Y242404D01*
X63346Y242512D01*
X63332Y242621D01*
X63314Y242667D01*
X63304Y242716D01*
X63256Y242814D01*
X63215Y242916D01*
X63186Y242957D01*
X63164Y243001D01*
X63093Y243085D01*
X63029Y243174D01*
X62990Y243206D01*
X62958Y243243D01*
X62868Y243307D01*
X62784Y243377D01*
X62739Y243398D01*
X62698Y243426D01*
X62595Y243465D01*
X62496Y243512D01*
X62447Y243521D01*
X62401Y243539D01*
X62291Y243551D01*
X62184Y243572D01*
X62134Y243569D01*
X62085Y243574D01*
X61976Y243559D01*
X61866Y243552D01*
X61819Y243537D01*
X61770Y243530D01*
X61617Y243478D01*
X59424Y242569D01*
X54876Y242569D01*
X50675Y244309D01*
X47459Y247525D01*
X45719Y251726D01*
X45719Y256274D01*
X47459Y260475D01*
X50675Y263691D01*
X54876Y265431D01*
X59424Y265431D01*
X63625Y263691D01*
X66841Y260475D01*
X68480Y256516D01*
X68544Y256404D01*
X68603Y256289D01*
X68623Y256266D01*
X68638Y256240D01*
X68728Y256147D01*
X68813Y256050D01*
X68838Y256033D01*
X68859Y256012D01*
X68970Y255944D01*
X69076Y255871D01*
X69105Y255861D01*
X69130Y255845D01*
X69254Y255807D01*
X69375Y255764D01*
X69405Y255761D01*
X69434Y255752D01*
X69563Y255746D01*
X69692Y255733D01*
X69722Y255738D01*
X69752Y255737D01*
X69878Y255763D01*
X70006Y255783D01*
X70034Y255795D01*
X70063Y255801D01*
X70180Y255858D01*
X70298Y255909D01*
X70322Y255927D01*
X70349Y255941D01*
X70447Y256025D01*
X70550Y256104D01*
X70568Y256127D01*
X70591Y256147D01*
X70665Y256253D01*
X70745Y256355D01*
X70757Y256382D01*
X70774Y256407D01*
X70820Y256528D01*
X70871Y256647D01*
X70881Y256688D01*
X70887Y256704D01*
X70889Y256726D01*
X70904Y256791D01*
X71486Y258583D01*
X72339Y260257D01*
X73444Y261778D01*
X74772Y263106D01*
X76293Y264211D01*
X77967Y265064D01*
X79287Y265493D01*
X79395Y265544D01*
X79506Y265588D01*
X79538Y265611D01*
X79575Y265628D01*
X79667Y265704D01*
X79763Y265774D01*
X79789Y265805D01*
X79820Y265831D01*
X79890Y265927D01*
X79966Y266019D01*
X79983Y266056D01*
X80007Y266088D01*
X80051Y266200D01*
X80102Y266307D01*
X80109Y266346D01*
X80124Y266384D01*
X80139Y266503D01*
X80161Y266620D01*
X80159Y266659D01*
X80164Y266699D01*
X80149Y266818D01*
X80142Y266937D01*
X80129Y266975D01*
X80124Y267015D01*
X80080Y267126D01*
X80044Y267239D01*
X80022Y267273D01*
X80007Y267311D01*
X79937Y267407D01*
X79873Y267508D01*
X79844Y267536D01*
X79821Y267568D01*
X79729Y267644D01*
X79642Y267726D01*
X79607Y267745D01*
X79576Y267771D01*
X79468Y267822D01*
X79363Y267880D01*
X79325Y267890D01*
X79288Y267907D01*
X79171Y267929D01*
X79055Y267959D01*
X78996Y267963D01*
X78976Y267967D01*
X78955Y267965D01*
X78895Y267969D01*
X25400Y267969D01*
X25379Y267967D01*
X25317Y267967D01*
X23659Y267858D01*
X23616Y267849D01*
X23572Y267849D01*
X23414Y267817D01*
X20211Y266959D01*
X20132Y266927D01*
X20050Y266904D01*
X19927Y266843D01*
X19917Y266839D01*
X19913Y266836D01*
X19905Y266832D01*
X17034Y265175D01*
X16966Y265123D01*
X16892Y265080D01*
X16789Y264989D01*
X16781Y264983D01*
X16778Y264979D01*
X16771Y264973D01*
X14427Y262629D01*
X14374Y262561D01*
X14314Y262500D01*
X14239Y262386D01*
X14232Y262377D01*
X14230Y262373D01*
X14225Y262366D01*
X12568Y259495D01*
X12534Y259416D01*
X12492Y259341D01*
X12448Y259212D01*
X12444Y259202D01*
X12444Y259197D01*
X12441Y259189D01*
X11583Y255986D01*
X11577Y255942D01*
X11563Y255900D01*
X11542Y255741D01*
X11433Y254083D01*
X11435Y254062D01*
X11431Y254000D01*
X11431Y25400D01*
X11433Y25379D01*
X11433Y25317D01*
X11542Y23659D01*
X11551Y23616D01*
X11551Y23572D01*
X11583Y23414D01*
X12441Y20211D01*
X12473Y20132D01*
X12496Y20050D01*
X12557Y19927D01*
X12561Y19917D01*
X12564Y19913D01*
X12568Y19905D01*
X14225Y17034D01*
X14277Y16966D01*
X14320Y16892D01*
X14411Y16789D01*
X14417Y16781D01*
X14421Y16778D01*
X14427Y16771D01*
X16771Y14427D01*
X16839Y14374D01*
X16900Y14314D01*
X17014Y14239D01*
X17023Y14232D01*
X17027Y14230D01*
X17034Y14225D01*
X19905Y12568D01*
X19984Y12534D01*
X20059Y12492D01*
X20128Y12469D01*
X20147Y12460D01*
X20165Y12456D01*
X20189Y12448D01*
X20198Y12444D01*
X20203Y12444D01*
X20211Y12441D01*
X23414Y11583D01*
X23458Y11577D01*
X23500Y11563D01*
X23659Y11542D01*
X25317Y11433D01*
X25338Y11435D01*
X25400Y11431D01*
X317500Y11431D01*
X317521Y11433D01*
G37*
%LPC*%
G36*
X316388Y99186D02*
X316388Y99186D01*
X314334Y100037D01*
X312762Y101609D01*
X311911Y103663D01*
X311911Y105167D01*
X311899Y105265D01*
X311896Y105364D01*
X311879Y105423D01*
X311871Y105483D01*
X311835Y105575D01*
X311807Y105670D01*
X311777Y105722D01*
X311754Y105778D01*
X311696Y105858D01*
X311646Y105944D01*
X311580Y106019D01*
X311568Y106036D01*
X311558Y106044D01*
X311540Y106065D01*
X306979Y110626D01*
X306900Y110686D01*
X306828Y110754D01*
X306775Y110783D01*
X306727Y110820D01*
X306636Y110860D01*
X306550Y110908D01*
X306491Y110923D01*
X306436Y110947D01*
X306338Y110962D01*
X306242Y110987D01*
X306142Y110993D01*
X306121Y110997D01*
X306109Y110995D01*
X306081Y110997D01*
X211357Y110997D01*
X169680Y152674D01*
X169571Y152759D01*
X169464Y152848D01*
X169445Y152856D01*
X169429Y152869D01*
X169301Y152924D01*
X169176Y152983D01*
X169156Y152987D01*
X169137Y152995D01*
X168999Y153017D01*
X168863Y153043D01*
X168843Y153042D01*
X168823Y153045D01*
X168684Y153032D01*
X168546Y153023D01*
X168527Y153017D01*
X168507Y153015D01*
X168375Y152968D01*
X168244Y152925D01*
X168226Y152914D01*
X168207Y152907D01*
X168092Y152829D01*
X167975Y152755D01*
X167961Y152740D01*
X167944Y152729D01*
X167852Y152625D01*
X167757Y152523D01*
X167747Y152506D01*
X167734Y152490D01*
X167670Y152367D01*
X167603Y152245D01*
X167598Y152225D01*
X167589Y152207D01*
X167559Y152071D01*
X167524Y151937D01*
X167522Y151909D01*
X167519Y151897D01*
X167520Y151876D01*
X167514Y151776D01*
X167514Y151288D01*
X166663Y149234D01*
X165599Y148171D01*
X165539Y148093D01*
X165471Y148020D01*
X165442Y147967D01*
X165405Y147920D01*
X165365Y147829D01*
X165317Y147742D01*
X165302Y147683D01*
X165278Y147628D01*
X165263Y147530D01*
X165238Y147434D01*
X165232Y147334D01*
X165228Y147314D01*
X165230Y147301D01*
X165228Y147273D01*
X165228Y128807D01*
X152010Y115590D01*
X151950Y115511D01*
X151882Y115439D01*
X151853Y115386D01*
X151816Y115338D01*
X151776Y115247D01*
X151728Y115161D01*
X151713Y115102D01*
X151689Y115047D01*
X151674Y114949D01*
X151649Y114853D01*
X151643Y114753D01*
X151639Y114732D01*
X151641Y114720D01*
X151639Y114692D01*
X151639Y113188D01*
X150788Y111134D01*
X149216Y109562D01*
X147162Y108711D01*
X144938Y108711D01*
X142884Y109562D01*
X141312Y111134D01*
X140461Y113188D01*
X140461Y115412D01*
X141312Y117466D01*
X142884Y119038D01*
X144938Y119889D01*
X146442Y119889D01*
X146540Y119901D01*
X146639Y119904D01*
X146698Y119921D01*
X146758Y119929D01*
X146850Y119965D01*
X146945Y119993D01*
X146997Y120023D01*
X147053Y120046D01*
X147133Y120104D01*
X147219Y120154D01*
X147294Y120220D01*
X147311Y120232D01*
X147319Y120242D01*
X147340Y120260D01*
X158251Y131171D01*
X158311Y131250D01*
X158379Y131322D01*
X158408Y131375D01*
X158445Y131423D01*
X158485Y131514D01*
X158533Y131600D01*
X158548Y131659D01*
X158572Y131714D01*
X158587Y131812D01*
X158612Y131908D01*
X158618Y132008D01*
X158622Y132029D01*
X158620Y132041D01*
X158622Y132069D01*
X158622Y147273D01*
X158610Y147372D01*
X158607Y147471D01*
X158590Y147529D01*
X158582Y147589D01*
X158546Y147681D01*
X158518Y147776D01*
X158488Y147828D01*
X158465Y147885D01*
X158407Y147965D01*
X158357Y148050D01*
X158291Y148125D01*
X158279Y148142D01*
X158269Y148150D01*
X158251Y148171D01*
X157187Y149234D01*
X156336Y151288D01*
X156336Y153512D01*
X157079Y155305D01*
X157097Y155372D01*
X157125Y155436D01*
X157139Y155525D01*
X157163Y155612D01*
X157164Y155681D01*
X157175Y155750D01*
X157167Y155840D01*
X157168Y155930D01*
X157152Y155998D01*
X157145Y156067D01*
X157115Y156152D01*
X157094Y156239D01*
X157061Y156301D01*
X157038Y156366D01*
X156987Y156441D01*
X156945Y156520D01*
X156898Y156572D01*
X156859Y156629D01*
X156792Y156689D01*
X156731Y156755D01*
X156673Y156794D01*
X156621Y156840D01*
X156541Y156881D01*
X156466Y156930D01*
X156399Y156953D01*
X156337Y156985D01*
X156250Y157004D01*
X156165Y157033D01*
X156095Y157039D01*
X156027Y157054D01*
X155937Y157051D01*
X155848Y157059D01*
X155779Y157047D01*
X155709Y157045D01*
X155623Y157020D01*
X155534Y157004D01*
X155471Y156976D01*
X155404Y156956D01*
X155326Y156911D01*
X155244Y156874D01*
X155190Y156830D01*
X155130Y156795D01*
X155009Y156688D01*
X152010Y153690D01*
X151950Y153611D01*
X151882Y153539D01*
X151853Y153486D01*
X151816Y153438D01*
X151776Y153347D01*
X151728Y153261D01*
X151713Y153202D01*
X151689Y153147D01*
X151674Y153049D01*
X151649Y152953D01*
X151643Y152853D01*
X151639Y152832D01*
X151641Y152820D01*
X151639Y152792D01*
X151639Y151288D01*
X150788Y149234D01*
X149216Y147662D01*
X147162Y146811D01*
X145658Y146811D01*
X145560Y146799D01*
X145461Y146796D01*
X145402Y146779D01*
X145342Y146771D01*
X145250Y146735D01*
X145155Y146707D01*
X145103Y146677D01*
X145047Y146654D01*
X144967Y146596D01*
X144881Y146546D01*
X144806Y146480D01*
X144789Y146468D01*
X144781Y146458D01*
X144760Y146440D01*
X139310Y140990D01*
X139250Y140911D01*
X139182Y140839D01*
X139153Y140786D01*
X139116Y140738D01*
X139076Y140647D01*
X139028Y140561D01*
X139013Y140502D01*
X138989Y140447D01*
X138974Y140349D01*
X138949Y140253D01*
X138943Y140153D01*
X138939Y140132D01*
X138941Y140120D01*
X138939Y140092D01*
X138939Y138588D01*
X138088Y136534D01*
X136516Y134962D01*
X134462Y134111D01*
X132238Y134111D01*
X130184Y134962D01*
X128612Y136534D01*
X127761Y138588D01*
X127761Y140812D01*
X128612Y142866D01*
X130184Y144438D01*
X132238Y145289D01*
X133742Y145289D01*
X133840Y145301D01*
X133939Y145304D01*
X133998Y145321D01*
X134058Y145329D01*
X134150Y145365D01*
X134245Y145393D01*
X134297Y145423D01*
X134353Y145446D01*
X134433Y145504D01*
X134519Y145554D01*
X134594Y145620D01*
X134611Y145632D01*
X134619Y145642D01*
X134640Y145660D01*
X140090Y151110D01*
X140150Y151189D01*
X140218Y151261D01*
X140247Y151314D01*
X140284Y151362D01*
X140324Y151453D01*
X140372Y151539D01*
X140387Y151598D01*
X140411Y151653D01*
X140426Y151751D01*
X140451Y151847D01*
X140457Y151947D01*
X140461Y151968D01*
X140459Y151980D01*
X140461Y152008D01*
X140461Y153512D01*
X141312Y155566D01*
X142884Y157138D01*
X144938Y157989D01*
X146442Y157989D01*
X146540Y158001D01*
X146639Y158004D01*
X146698Y158021D01*
X146758Y158029D01*
X146850Y158065D01*
X146945Y158093D01*
X146997Y158123D01*
X147053Y158146D01*
X147133Y158204D01*
X147219Y158254D01*
X147294Y158320D01*
X147311Y158332D01*
X147319Y158342D01*
X147340Y158360D01*
X154207Y165228D01*
X166468Y165228D01*
X168774Y162921D01*
X179570Y152126D01*
X179679Y152041D01*
X179786Y151952D01*
X179805Y151944D01*
X179821Y151931D01*
X179949Y151876D01*
X180074Y151817D01*
X180094Y151813D01*
X180113Y151805D01*
X180251Y151783D01*
X180387Y151757D01*
X180407Y151758D01*
X180427Y151755D01*
X180566Y151768D01*
X180704Y151777D01*
X180723Y151783D01*
X180743Y151785D01*
X180875Y151832D01*
X181006Y151875D01*
X181024Y151886D01*
X181043Y151893D01*
X181158Y151971D01*
X181275Y152045D01*
X181289Y152060D01*
X181306Y152071D01*
X181398Y152175D01*
X181493Y152277D01*
X181503Y152294D01*
X181516Y152310D01*
X181580Y152434D01*
X181647Y152555D01*
X181652Y152575D01*
X181661Y152593D01*
X181691Y152729D01*
X181726Y152863D01*
X181728Y152891D01*
X181731Y152903D01*
X181730Y152924D01*
X181736Y153024D01*
X181736Y153512D01*
X182587Y155566D01*
X184159Y157138D01*
X186213Y157989D01*
X188437Y157989D01*
X190428Y157164D01*
X190562Y157127D01*
X190695Y157086D01*
X190715Y157085D01*
X190734Y157080D01*
X190874Y157078D01*
X191012Y157071D01*
X191032Y157075D01*
X191052Y157075D01*
X191188Y157108D01*
X191324Y157136D01*
X191342Y157145D01*
X191362Y157149D01*
X191484Y157214D01*
X191609Y157275D01*
X191625Y157289D01*
X191643Y157298D01*
X191745Y157391D01*
X191851Y157482D01*
X191863Y157498D01*
X191878Y157512D01*
X191954Y157628D01*
X192034Y157742D01*
X192042Y157761D01*
X192053Y157778D01*
X192098Y157909D01*
X192147Y158039D01*
X192149Y158059D01*
X192156Y158078D01*
X192167Y158217D01*
X192182Y158355D01*
X192180Y158375D01*
X192181Y158395D01*
X192157Y158533D01*
X192138Y158670D01*
X192129Y158697D01*
X192127Y158709D01*
X192118Y158727D01*
X192086Y158822D01*
X191261Y160813D01*
X191261Y163037D01*
X192112Y165091D01*
X193002Y165981D01*
X193087Y166090D01*
X193176Y166197D01*
X193184Y166216D01*
X193197Y166232D01*
X193252Y166359D01*
X193311Y166485D01*
X193315Y166505D01*
X193323Y166524D01*
X193345Y166662D01*
X193371Y166798D01*
X193370Y166818D01*
X193373Y166838D01*
X193360Y166977D01*
X193351Y167115D01*
X193345Y167134D01*
X193343Y167154D01*
X193296Y167286D01*
X193253Y167417D01*
X193242Y167435D01*
X193236Y167454D01*
X193158Y167569D01*
X193083Y167686D01*
X193068Y167700D01*
X193057Y167717D01*
X192953Y167809D01*
X192852Y167904D01*
X192834Y167914D01*
X192819Y167927D01*
X192695Y167990D01*
X192573Y168058D01*
X192553Y168063D01*
X192535Y168072D01*
X192400Y168102D01*
X192265Y168137D01*
X192237Y168139D01*
X192225Y168142D01*
X192205Y168141D01*
X192104Y168147D01*
X179607Y168147D01*
X177301Y170454D01*
X175915Y171840D01*
X175837Y171900D01*
X175764Y171968D01*
X175711Y171997D01*
X175663Y172034D01*
X175573Y172074D01*
X175486Y172122D01*
X175427Y172137D01*
X175372Y172161D01*
X175274Y172176D01*
X175178Y172201D01*
X175078Y172207D01*
X175058Y172211D01*
X175045Y172209D01*
X175017Y172211D01*
X173513Y172211D01*
X171459Y173062D01*
X170396Y174126D01*
X170318Y174186D01*
X170245Y174254D01*
X170192Y174283D01*
X170145Y174320D01*
X170054Y174360D01*
X169967Y174408D01*
X169908Y174423D01*
X169853Y174447D01*
X169755Y174462D01*
X169659Y174487D01*
X169559Y174493D01*
X169539Y174497D01*
X169526Y174495D01*
X169498Y174497D01*
X132069Y174497D01*
X131971Y174485D01*
X131872Y174482D01*
X131813Y174465D01*
X131753Y174457D01*
X131661Y174421D01*
X131566Y174393D01*
X131514Y174363D01*
X131458Y174340D01*
X131378Y174282D01*
X131292Y174232D01*
X131217Y174166D01*
X131200Y174154D01*
X131192Y174144D01*
X131171Y174126D01*
X88510Y131465D01*
X88450Y131386D01*
X88382Y131314D01*
X88353Y131261D01*
X88316Y131213D01*
X88276Y131122D01*
X88228Y131036D01*
X88213Y130977D01*
X88189Y130922D01*
X88174Y130824D01*
X88149Y130728D01*
X88143Y130628D01*
X88139Y130607D01*
X88141Y130595D01*
X88139Y130567D01*
X88139Y129063D01*
X87288Y127009D01*
X85716Y125437D01*
X83662Y124586D01*
X81438Y124586D01*
X79384Y125437D01*
X77812Y127009D01*
X76961Y129063D01*
X76961Y129551D01*
X76944Y129689D01*
X76931Y129828D01*
X76924Y129847D01*
X76921Y129867D01*
X76870Y129996D01*
X76823Y130127D01*
X76812Y130144D01*
X76804Y130162D01*
X76723Y130275D01*
X76645Y130390D01*
X76629Y130403D01*
X76618Y130420D01*
X76510Y130509D01*
X76406Y130601D01*
X76388Y130610D01*
X76373Y130623D01*
X76247Y130682D01*
X76123Y130745D01*
X76103Y130750D01*
X76085Y130758D01*
X75948Y130784D01*
X75813Y130815D01*
X75792Y130814D01*
X75773Y130818D01*
X75634Y130809D01*
X75495Y130805D01*
X75475Y130799D01*
X75455Y130798D01*
X75323Y130755D01*
X75189Y130717D01*
X75172Y130706D01*
X75153Y130700D01*
X75035Y130626D01*
X74915Y130555D01*
X74894Y130537D01*
X74884Y130530D01*
X74870Y130515D01*
X74795Y130449D01*
X74393Y130047D01*
X36877Y130047D01*
X36778Y130035D01*
X36679Y130032D01*
X36621Y130015D01*
X36561Y130007D01*
X36469Y129971D01*
X36374Y129943D01*
X36322Y129913D01*
X36265Y129890D01*
X36185Y129832D01*
X36100Y129782D01*
X36025Y129716D01*
X36008Y129704D01*
X36000Y129694D01*
X35979Y129675D01*
X34916Y128612D01*
X32862Y127761D01*
X30638Y127761D01*
X28584Y128612D01*
X27012Y130184D01*
X26161Y132238D01*
X26161Y134462D01*
X27012Y136516D01*
X28584Y138088D01*
X30638Y138939D01*
X32862Y138939D01*
X34916Y138088D01*
X35979Y137025D01*
X36057Y136964D01*
X36130Y136896D01*
X36183Y136867D01*
X36230Y136830D01*
X36321Y136790D01*
X36408Y136742D01*
X36467Y136727D01*
X36522Y136703D01*
X36620Y136688D01*
X36716Y136663D01*
X36816Y136657D01*
X36836Y136653D01*
X36849Y136655D01*
X36877Y136653D01*
X71131Y136653D01*
X71229Y136665D01*
X71328Y136668D01*
X71387Y136685D01*
X71447Y136693D01*
X71539Y136729D01*
X71634Y136757D01*
X71686Y136787D01*
X71742Y136810D01*
X71822Y136868D01*
X71908Y136918D01*
X71983Y136984D01*
X72000Y136996D01*
X72008Y137006D01*
X72029Y137024D01*
X98699Y163695D01*
X98784Y163804D01*
X98873Y163911D01*
X98881Y163930D01*
X98894Y163946D01*
X98949Y164074D01*
X99008Y164199D01*
X99012Y164219D01*
X99020Y164238D01*
X99042Y164376D01*
X99068Y164512D01*
X99067Y164532D01*
X99070Y164552D01*
X99057Y164691D01*
X99048Y164829D01*
X99042Y164848D01*
X99040Y164868D01*
X98993Y165000D01*
X98950Y165131D01*
X98939Y165149D01*
X98932Y165168D01*
X98854Y165283D01*
X98780Y165400D01*
X98765Y165414D01*
X98754Y165431D01*
X98650Y165523D01*
X98548Y165618D01*
X98531Y165628D01*
X98515Y165641D01*
X98392Y165704D01*
X98270Y165772D01*
X98250Y165777D01*
X98232Y165786D01*
X98096Y165816D01*
X97962Y165851D01*
X97934Y165853D01*
X97922Y165856D01*
X97901Y165855D01*
X97801Y165861D01*
X97313Y165861D01*
X95259Y166712D01*
X94196Y167776D01*
X94118Y167836D01*
X94045Y167904D01*
X93992Y167933D01*
X93945Y167970D01*
X93854Y168010D01*
X93767Y168058D01*
X93708Y168073D01*
X93653Y168097D01*
X93555Y168112D01*
X93459Y168137D01*
X93359Y168143D01*
X93339Y168147D01*
X93326Y168145D01*
X93298Y168147D01*
X90707Y168147D01*
X88772Y170082D01*
X88772Y226793D01*
X106582Y244603D01*
X118756Y244603D01*
X118854Y244615D01*
X118953Y244618D01*
X119012Y244635D01*
X119072Y244643D01*
X119164Y244679D01*
X119259Y244707D01*
X119311Y244737D01*
X119367Y244760D01*
X119447Y244818D01*
X119533Y244868D01*
X119608Y244934D01*
X119625Y244946D01*
X119633Y244956D01*
X119654Y244974D01*
X122634Y247954D01*
X122652Y247978D01*
X122674Y247997D01*
X122749Y248103D01*
X122829Y248206D01*
X122840Y248233D01*
X122857Y248257D01*
X122903Y248378D01*
X122955Y248497D01*
X122959Y248527D01*
X122970Y248554D01*
X122984Y248683D01*
X123005Y248812D01*
X123002Y248841D01*
X123005Y248870D01*
X122987Y248999D01*
X122975Y249128D01*
X122965Y249156D01*
X122961Y249185D01*
X122909Y249338D01*
X121919Y251726D01*
X121919Y256274D01*
X123659Y260475D01*
X126875Y263691D01*
X131076Y265431D01*
X135624Y265431D01*
X139825Y263691D01*
X143041Y260475D01*
X144781Y256274D01*
X144781Y251726D01*
X143041Y247525D01*
X139825Y244309D01*
X135624Y242569D01*
X131076Y242569D01*
X128688Y243559D01*
X128659Y243566D01*
X128633Y243580D01*
X128506Y243608D01*
X128381Y243643D01*
X128351Y243643D01*
X128322Y243650D01*
X128193Y243646D01*
X128063Y243648D01*
X128034Y243641D01*
X128005Y243640D01*
X127880Y243604D01*
X127754Y243574D01*
X127727Y243560D01*
X127699Y243552D01*
X127587Y243486D01*
X127472Y243425D01*
X127451Y243405D01*
X127425Y243390D01*
X127304Y243284D01*
X124440Y240419D01*
X124355Y240310D01*
X124266Y240203D01*
X124258Y240184D01*
X124245Y240168D01*
X124190Y240040D01*
X124131Y239915D01*
X124127Y239895D01*
X124119Y239876D01*
X124097Y239738D01*
X124071Y239602D01*
X124072Y239582D01*
X124069Y239562D01*
X124082Y239423D01*
X124091Y239285D01*
X124097Y239266D01*
X124099Y239246D01*
X124146Y239114D01*
X124189Y238983D01*
X124200Y238965D01*
X124207Y238946D01*
X124285Y238831D01*
X124359Y238714D01*
X124374Y238700D01*
X124385Y238683D01*
X124489Y238591D01*
X124591Y238496D01*
X124608Y238486D01*
X124624Y238473D01*
X124747Y238409D01*
X124869Y238342D01*
X124889Y238337D01*
X124907Y238328D01*
X125043Y238298D01*
X125177Y238263D01*
X125205Y238261D01*
X125217Y238258D01*
X125238Y238259D01*
X125338Y238253D01*
X140981Y238253D01*
X141079Y238265D01*
X141178Y238268D01*
X141237Y238285D01*
X141297Y238293D01*
X141389Y238329D01*
X141484Y238357D01*
X141536Y238387D01*
X141592Y238410D01*
X141672Y238468D01*
X141758Y238518D01*
X141833Y238584D01*
X141850Y238596D01*
X141858Y238606D01*
X141879Y238624D01*
X149022Y245768D01*
X149095Y245862D01*
X149174Y245951D01*
X149192Y245987D01*
X149217Y246019D01*
X149264Y246128D01*
X149318Y246234D01*
X149327Y246274D01*
X149343Y246311D01*
X149362Y246428D01*
X149388Y246545D01*
X149387Y246585D01*
X149393Y246625D01*
X149382Y246744D01*
X149378Y246863D01*
X149367Y246901D01*
X149363Y246941D01*
X149323Y247054D01*
X149290Y247168D01*
X149269Y247203D01*
X149256Y247241D01*
X149189Y247339D01*
X149128Y247442D01*
X149088Y247487D01*
X149077Y247504D01*
X149063Y247516D01*
X147319Y251726D01*
X147319Y256274D01*
X149059Y260475D01*
X152275Y263691D01*
X156476Y265431D01*
X161024Y265431D01*
X165225Y263691D01*
X168441Y260475D01*
X170181Y256274D01*
X170181Y251726D01*
X168441Y247525D01*
X165225Y244309D01*
X161024Y242569D01*
X156476Y242569D01*
X156333Y242629D01*
X156304Y242637D01*
X156278Y242650D01*
X156151Y242678D01*
X156026Y242713D01*
X155996Y242713D01*
X155968Y242720D01*
X155838Y242716D01*
X155708Y242718D01*
X155679Y242711D01*
X155650Y242710D01*
X155525Y242674D01*
X155399Y242644D01*
X155372Y242630D01*
X155344Y242622D01*
X155232Y242556D01*
X155118Y242495D01*
X155096Y242475D01*
X155070Y242460D01*
X154949Y242354D01*
X146665Y234069D01*
X146580Y233960D01*
X146491Y233853D01*
X146483Y233834D01*
X146470Y233818D01*
X146415Y233690D01*
X146356Y233565D01*
X146352Y233545D01*
X146344Y233526D01*
X146322Y233388D01*
X146296Y233252D01*
X146297Y233232D01*
X146294Y233212D01*
X146307Y233073D01*
X146316Y232935D01*
X146322Y232916D01*
X146324Y232896D01*
X146371Y232764D01*
X146414Y232633D01*
X146425Y232615D01*
X146432Y232596D01*
X146510Y232481D01*
X146584Y232364D01*
X146599Y232350D01*
X146610Y232333D01*
X146714Y232241D01*
X146816Y232146D01*
X146833Y232136D01*
X146849Y232123D01*
X146972Y232059D01*
X147094Y231992D01*
X147114Y231987D01*
X147132Y231978D01*
X147268Y231948D01*
X147402Y231913D01*
X147430Y231911D01*
X147442Y231908D01*
X147463Y231909D01*
X147563Y231903D01*
X210831Y231903D01*
X210929Y231915D01*
X211028Y231918D01*
X211087Y231935D01*
X211147Y231943D01*
X211239Y231979D01*
X211334Y232007D01*
X211386Y232037D01*
X211442Y232060D01*
X211522Y232118D01*
X211608Y232168D01*
X211683Y232234D01*
X211700Y232246D01*
X211708Y232256D01*
X211729Y232274D01*
X225222Y245768D01*
X225295Y245862D01*
X225374Y245951D01*
X225392Y245987D01*
X225417Y246019D01*
X225464Y246128D01*
X225518Y246234D01*
X225527Y246274D01*
X225543Y246311D01*
X225562Y246428D01*
X225588Y246545D01*
X225587Y246585D01*
X225593Y246625D01*
X225582Y246744D01*
X225578Y246863D01*
X225567Y246901D01*
X225563Y246941D01*
X225523Y247054D01*
X225490Y247168D01*
X225469Y247203D01*
X225456Y247241D01*
X225389Y247339D01*
X225328Y247442D01*
X225288Y247487D01*
X225277Y247504D01*
X225263Y247516D01*
X223519Y251726D01*
X223519Y256274D01*
X225259Y260475D01*
X228475Y263691D01*
X232676Y265431D01*
X237224Y265431D01*
X241425Y263691D01*
X244641Y260475D01*
X246381Y256274D01*
X246381Y251726D01*
X244641Y247525D01*
X241425Y244309D01*
X237224Y242569D01*
X232676Y242569D01*
X232533Y242629D01*
X232504Y242637D01*
X232478Y242650D01*
X232351Y242678D01*
X232226Y242713D01*
X232196Y242713D01*
X232168Y242720D01*
X232038Y242716D01*
X231908Y242718D01*
X231879Y242711D01*
X231850Y242710D01*
X231725Y242674D01*
X231599Y242644D01*
X231572Y242630D01*
X231544Y242622D01*
X231432Y242556D01*
X231318Y242495D01*
X231296Y242475D01*
X231270Y242460D01*
X231149Y242354D01*
X216515Y227719D01*
X216430Y227610D01*
X216341Y227503D01*
X216333Y227484D01*
X216320Y227468D01*
X216265Y227340D01*
X216206Y227215D01*
X216202Y227195D01*
X216194Y227176D01*
X216172Y227038D01*
X216146Y226902D01*
X216147Y226882D01*
X216144Y226862D01*
X216157Y226723D01*
X216166Y226585D01*
X216172Y226566D01*
X216174Y226546D01*
X216221Y226414D01*
X216264Y226283D01*
X216275Y226265D01*
X216282Y226246D01*
X216360Y226131D01*
X216434Y226014D01*
X216449Y226000D01*
X216460Y225983D01*
X216564Y225891D01*
X216666Y225796D01*
X216683Y225786D01*
X216699Y225773D01*
X216822Y225709D01*
X216944Y225642D01*
X216964Y225637D01*
X216982Y225628D01*
X217118Y225598D01*
X217252Y225563D01*
X217280Y225561D01*
X217292Y225558D01*
X217313Y225559D01*
X217413Y225553D01*
X229881Y225553D01*
X229979Y225565D01*
X230078Y225568D01*
X230137Y225585D01*
X230197Y225593D01*
X230289Y225629D01*
X230384Y225657D01*
X230436Y225687D01*
X230492Y225710D01*
X230572Y225768D01*
X230658Y225818D01*
X230733Y225884D01*
X230750Y225896D01*
X230758Y225906D01*
X230779Y225924D01*
X250622Y245768D01*
X250695Y245862D01*
X250774Y245951D01*
X250792Y245987D01*
X250817Y246019D01*
X250864Y246128D01*
X250918Y246234D01*
X250927Y246274D01*
X250943Y246311D01*
X250962Y246428D01*
X250988Y246545D01*
X250987Y246585D01*
X250993Y246625D01*
X250982Y246744D01*
X250978Y246863D01*
X250967Y246901D01*
X250963Y246941D01*
X250923Y247054D01*
X250890Y247168D01*
X250869Y247203D01*
X250856Y247241D01*
X250789Y247339D01*
X250728Y247442D01*
X250688Y247487D01*
X250677Y247504D01*
X250663Y247516D01*
X248919Y251726D01*
X248919Y256274D01*
X250659Y260475D01*
X253875Y263691D01*
X258076Y265431D01*
X262624Y265431D01*
X266825Y263691D01*
X270041Y260475D01*
X271781Y256274D01*
X271781Y251726D01*
X270041Y247525D01*
X266825Y244309D01*
X262624Y242569D01*
X258076Y242569D01*
X257933Y242629D01*
X257904Y242637D01*
X257878Y242650D01*
X257751Y242678D01*
X257626Y242713D01*
X257596Y242713D01*
X257568Y242720D01*
X257438Y242716D01*
X257308Y242718D01*
X257279Y242711D01*
X257250Y242710D01*
X257125Y242674D01*
X256999Y242644D01*
X256973Y242630D01*
X256944Y242622D01*
X256832Y242556D01*
X256718Y242495D01*
X256696Y242475D01*
X256670Y242460D01*
X256549Y242354D01*
X233143Y218947D01*
X140194Y218947D01*
X140165Y218944D01*
X140136Y218946D01*
X140007Y218924D01*
X139879Y218907D01*
X139851Y218897D01*
X139822Y218892D01*
X139704Y218838D01*
X139583Y218790D01*
X139559Y218773D01*
X139532Y218761D01*
X139431Y218680D01*
X139326Y218604D01*
X139307Y218581D01*
X139284Y218562D01*
X139206Y218459D01*
X139123Y218359D01*
X139110Y218332D01*
X139093Y218308D01*
X139022Y218164D01*
X138088Y215909D01*
X137198Y215019D01*
X137113Y214910D01*
X137024Y214803D01*
X137016Y214784D01*
X137003Y214768D01*
X136948Y214641D01*
X136889Y214515D01*
X136885Y214495D01*
X136877Y214476D01*
X136855Y214338D01*
X136829Y214202D01*
X136830Y214182D01*
X136827Y214162D01*
X136840Y214023D01*
X136849Y213885D01*
X136855Y213866D01*
X136857Y213846D01*
X136904Y213714D01*
X136947Y213583D01*
X136958Y213565D01*
X136964Y213546D01*
X137042Y213431D01*
X137117Y213314D01*
X137132Y213300D01*
X137143Y213283D01*
X137247Y213191D01*
X137348Y213096D01*
X137366Y213086D01*
X137381Y213073D01*
X137505Y213010D01*
X137627Y212942D01*
X137647Y212937D01*
X137665Y212928D01*
X137800Y212898D01*
X137935Y212863D01*
X137963Y212861D01*
X137975Y212858D01*
X137995Y212859D01*
X138096Y212853D01*
X242581Y212853D01*
X242679Y212865D01*
X242778Y212868D01*
X242837Y212885D01*
X242897Y212893D01*
X242989Y212929D01*
X243084Y212957D01*
X243136Y212987D01*
X243192Y213010D01*
X243272Y213068D01*
X243358Y213118D01*
X243433Y213184D01*
X243450Y213196D01*
X243458Y213206D01*
X243479Y213224D01*
X276022Y245768D01*
X276095Y245862D01*
X276174Y245951D01*
X276192Y245987D01*
X276217Y246019D01*
X276264Y246128D01*
X276318Y246234D01*
X276327Y246274D01*
X276343Y246311D01*
X276362Y246428D01*
X276388Y246545D01*
X276387Y246585D01*
X276393Y246625D01*
X276382Y246744D01*
X276378Y246863D01*
X276367Y246901D01*
X276363Y246941D01*
X276323Y247054D01*
X276290Y247168D01*
X276269Y247203D01*
X276256Y247241D01*
X276189Y247339D01*
X276128Y247442D01*
X276088Y247487D01*
X276077Y247504D01*
X276063Y247516D01*
X274319Y251726D01*
X274319Y256274D01*
X276059Y260475D01*
X279275Y263691D01*
X283476Y265431D01*
X288024Y265431D01*
X292225Y263691D01*
X295441Y260475D01*
X297181Y256274D01*
X297181Y251726D01*
X295441Y247525D01*
X292225Y244309D01*
X288024Y242569D01*
X283476Y242569D01*
X283333Y242629D01*
X283304Y242637D01*
X283278Y242650D01*
X283151Y242678D01*
X283026Y242713D01*
X282996Y242713D01*
X282968Y242720D01*
X282838Y242716D01*
X282708Y242718D01*
X282679Y242711D01*
X282650Y242710D01*
X282525Y242674D01*
X282399Y242644D01*
X282373Y242630D01*
X282344Y242622D01*
X282232Y242556D01*
X282118Y242495D01*
X282096Y242475D01*
X282070Y242460D01*
X281949Y242354D01*
X248265Y208669D01*
X248180Y208560D01*
X248091Y208453D01*
X248083Y208434D01*
X248070Y208418D01*
X248015Y208290D01*
X247956Y208165D01*
X247952Y208145D01*
X247944Y208126D01*
X247922Y207988D01*
X247896Y207852D01*
X247897Y207832D01*
X247894Y207812D01*
X247907Y207673D01*
X247916Y207535D01*
X247922Y207516D01*
X247924Y207496D01*
X247971Y207364D01*
X248014Y207233D01*
X248025Y207215D01*
X248032Y207196D01*
X248110Y207081D01*
X248184Y206964D01*
X248199Y206950D01*
X248210Y206933D01*
X248314Y206841D01*
X248416Y206746D01*
X248433Y206736D01*
X248449Y206723D01*
X248572Y206659D01*
X248694Y206592D01*
X248714Y206587D01*
X248732Y206578D01*
X248868Y206548D01*
X249002Y206513D01*
X249030Y206511D01*
X249042Y206508D01*
X249063Y206509D01*
X249163Y206503D01*
X261631Y206503D01*
X261729Y206515D01*
X261828Y206518D01*
X261887Y206535D01*
X261947Y206543D01*
X262039Y206579D01*
X262134Y206607D01*
X262186Y206637D01*
X262242Y206660D01*
X262322Y206718D01*
X262408Y206768D01*
X262483Y206834D01*
X262500Y206846D01*
X262508Y206856D01*
X262529Y206874D01*
X301422Y245768D01*
X301495Y245862D01*
X301574Y245951D01*
X301592Y245987D01*
X301617Y246019D01*
X301664Y246128D01*
X301718Y246234D01*
X301727Y246274D01*
X301743Y246311D01*
X301762Y246428D01*
X301788Y246545D01*
X301787Y246585D01*
X301793Y246625D01*
X301782Y246744D01*
X301778Y246863D01*
X301767Y246901D01*
X301763Y246941D01*
X301723Y247054D01*
X301690Y247168D01*
X301669Y247203D01*
X301656Y247241D01*
X301589Y247339D01*
X301528Y247442D01*
X301488Y247487D01*
X301477Y247504D01*
X301463Y247516D01*
X299719Y251726D01*
X299719Y256274D01*
X301459Y260475D01*
X304675Y263691D01*
X308876Y265431D01*
X313424Y265431D01*
X317625Y263691D01*
X320841Y260475D01*
X322581Y256274D01*
X322581Y251726D01*
X320841Y247525D01*
X317625Y244309D01*
X313424Y242569D01*
X308876Y242569D01*
X308733Y242629D01*
X308704Y242637D01*
X308678Y242650D01*
X308551Y242678D01*
X308426Y242713D01*
X308396Y242713D01*
X308368Y242720D01*
X308238Y242716D01*
X308108Y242718D01*
X308079Y242711D01*
X308050Y242710D01*
X307925Y242674D01*
X307799Y242644D01*
X307773Y242630D01*
X307744Y242622D01*
X307632Y242556D01*
X307518Y242495D01*
X307496Y242475D01*
X307470Y242460D01*
X307349Y242354D01*
X264893Y199897D01*
X188896Y199897D01*
X188758Y199880D01*
X188619Y199867D01*
X188600Y199860D01*
X188580Y199857D01*
X188451Y199806D01*
X188320Y199759D01*
X188303Y199748D01*
X188284Y199740D01*
X188172Y199659D01*
X188057Y199581D01*
X188043Y199565D01*
X188027Y199554D01*
X187938Y199446D01*
X187846Y199342D01*
X187837Y199324D01*
X187824Y199309D01*
X187765Y199183D01*
X187702Y199059D01*
X187697Y199039D01*
X187689Y199021D01*
X187663Y198884D01*
X187632Y198749D01*
X187633Y198728D01*
X187629Y198709D01*
X187638Y198570D01*
X187642Y198431D01*
X187647Y198411D01*
X187649Y198391D01*
X187691Y198259D01*
X187730Y198125D01*
X187740Y198108D01*
X187747Y198089D01*
X187821Y197971D01*
X187892Y197851D01*
X187910Y197830D01*
X187917Y197820D01*
X187932Y197806D01*
X187998Y197731D01*
X188888Y196841D01*
X189739Y194787D01*
X189739Y192563D01*
X188888Y190509D01*
X187316Y188937D01*
X185262Y188086D01*
X183758Y188086D01*
X183660Y188074D01*
X183561Y188071D01*
X183502Y188054D01*
X183442Y188046D01*
X183350Y188010D01*
X183255Y187982D01*
X183203Y187952D01*
X183147Y187929D01*
X183067Y187871D01*
X182981Y187821D01*
X182906Y187755D01*
X182889Y187743D01*
X182881Y187733D01*
X182860Y187715D01*
X179142Y183996D01*
X179094Y183992D01*
X179075Y183985D01*
X179055Y183982D01*
X178926Y183931D01*
X178795Y183884D01*
X178778Y183873D01*
X178759Y183865D01*
X178647Y183784D01*
X178532Y183706D01*
X178518Y183690D01*
X178502Y183679D01*
X178413Y183571D01*
X178321Y183467D01*
X178312Y183449D01*
X178299Y183434D01*
X178240Y183308D01*
X178177Y183184D01*
X178172Y183164D01*
X178164Y183146D01*
X178138Y183009D01*
X178107Y182874D01*
X178108Y182853D01*
X178104Y182834D01*
X178113Y182695D01*
X178117Y182556D01*
X178122Y182536D01*
X178124Y182516D01*
X178166Y182384D01*
X178205Y182250D01*
X178215Y182233D01*
X178222Y182214D01*
X178296Y182096D01*
X178367Y181976D01*
X178385Y181955D01*
X178392Y181945D01*
X178407Y181931D01*
X178473Y181856D01*
X179363Y180966D01*
X180214Y178912D01*
X180214Y177408D01*
X180226Y177310D01*
X180229Y177211D01*
X180246Y177152D01*
X180254Y177092D01*
X180290Y177000D01*
X180318Y176905D01*
X180348Y176853D01*
X180371Y176797D01*
X180429Y176716D01*
X180479Y176631D01*
X180545Y176556D01*
X180557Y176539D01*
X180567Y176531D01*
X180585Y176510D01*
X181971Y175124D01*
X182050Y175064D01*
X182122Y174996D01*
X182175Y174967D01*
X182223Y174930D01*
X182314Y174890D01*
X182400Y174842D01*
X182459Y174827D01*
X182514Y174803D01*
X182612Y174788D01*
X182708Y174763D01*
X182808Y174757D01*
X182829Y174753D01*
X182841Y174755D01*
X182869Y174753D01*
X223618Y174753D01*
X227310Y171060D01*
X227389Y171000D01*
X227461Y170932D01*
X227514Y170903D01*
X227562Y170866D01*
X227653Y170826D01*
X227739Y170778D01*
X227798Y170763D01*
X227853Y170739D01*
X227951Y170724D01*
X228047Y170699D01*
X228147Y170693D01*
X228168Y170689D01*
X228180Y170691D01*
X228208Y170689D01*
X229712Y170689D01*
X231766Y169838D01*
X232829Y168774D01*
X232907Y168714D01*
X232980Y168646D01*
X233033Y168617D01*
X233080Y168580D01*
X233171Y168540D01*
X233258Y168492D01*
X233317Y168477D01*
X233372Y168453D01*
X233470Y168438D01*
X233566Y168413D01*
X233666Y168407D01*
X233686Y168403D01*
X233699Y168405D01*
X233727Y168403D01*
X285425Y168403D01*
X285435Y168404D01*
X285444Y168403D01*
X285605Y168415D01*
X286669Y168568D01*
X286789Y168499D01*
X286797Y168497D01*
X286805Y168492D01*
X286951Y168455D01*
X287095Y168415D01*
X287105Y168415D01*
X287106Y168415D01*
X287856Y167665D01*
X287863Y167659D01*
X287869Y167652D01*
X287992Y167547D01*
X308921Y151850D01*
X309007Y151801D01*
X309088Y151744D01*
X309145Y151723D01*
X309198Y151692D01*
X309293Y151666D01*
X309385Y151631D01*
X309446Y151625D01*
X309504Y151609D01*
X309603Y151607D01*
X309701Y151596D01*
X309762Y151605D01*
X309822Y151604D01*
X309918Y151627D01*
X310003Y151639D01*
X312262Y151639D01*
X314316Y150788D01*
X315888Y149216D01*
X316739Y147162D01*
X316739Y144938D01*
X315888Y142884D01*
X314316Y141312D01*
X312262Y140461D01*
X310038Y140461D01*
X307984Y141312D01*
X306412Y142884D01*
X305561Y144938D01*
X305561Y145479D01*
X305558Y145508D01*
X305560Y145538D01*
X305538Y145666D01*
X305521Y145794D01*
X305510Y145822D01*
X305505Y145851D01*
X305452Y145969D01*
X305404Y146090D01*
X305387Y146114D01*
X305375Y146141D01*
X305294Y146242D01*
X305218Y146347D01*
X305195Y146366D01*
X305176Y146389D01*
X305054Y146494D01*
X284988Y161543D01*
X284980Y161548D01*
X284973Y161554D01*
X284842Y161626D01*
X284711Y161701D01*
X284703Y161703D01*
X284695Y161708D01*
X284550Y161745D01*
X284404Y161785D01*
X284395Y161785D01*
X284387Y161787D01*
X284226Y161797D01*
X233727Y161797D01*
X233628Y161785D01*
X233529Y161782D01*
X233471Y161765D01*
X233411Y161757D01*
X233319Y161721D01*
X233224Y161693D01*
X233172Y161663D01*
X233115Y161640D01*
X233035Y161582D01*
X232950Y161532D01*
X232875Y161466D01*
X232858Y161454D01*
X232850Y161444D01*
X232829Y161426D01*
X231766Y160362D01*
X229712Y159511D01*
X227488Y159511D01*
X225434Y160362D01*
X223862Y161934D01*
X223011Y163988D01*
X223011Y165492D01*
X222999Y165590D01*
X222996Y165689D01*
X222979Y165748D01*
X222971Y165808D01*
X222935Y165900D01*
X222907Y165995D01*
X222877Y166047D01*
X222854Y166103D01*
X222796Y166183D01*
X222746Y166269D01*
X222680Y166344D01*
X222668Y166361D01*
X222658Y166369D01*
X222640Y166390D01*
X221254Y167776D01*
X221175Y167836D01*
X221103Y167904D01*
X221050Y167933D01*
X221002Y167970D01*
X220911Y168010D01*
X220825Y168058D01*
X220766Y168073D01*
X220711Y168097D01*
X220613Y168112D01*
X220517Y168137D01*
X220417Y168143D01*
X220396Y168147D01*
X220384Y168145D01*
X220356Y168147D01*
X201596Y168147D01*
X201458Y168130D01*
X201319Y168117D01*
X201300Y168110D01*
X201280Y168107D01*
X201151Y168056D01*
X201020Y168009D01*
X201003Y167998D01*
X200984Y167990D01*
X200872Y167909D01*
X200757Y167831D01*
X200743Y167815D01*
X200727Y167804D01*
X200638Y167696D01*
X200546Y167592D01*
X200537Y167574D01*
X200524Y167559D01*
X200465Y167433D01*
X200402Y167309D01*
X200397Y167289D01*
X200389Y167271D01*
X200363Y167135D01*
X200332Y166999D01*
X200333Y166978D01*
X200329Y166959D01*
X200338Y166820D01*
X200342Y166681D01*
X200347Y166661D01*
X200349Y166641D01*
X200391Y166509D01*
X200430Y166375D01*
X200440Y166358D01*
X200447Y166339D01*
X200521Y166221D01*
X200592Y166101D01*
X200610Y166080D01*
X200617Y166070D01*
X200632Y166056D01*
X200698Y165980D01*
X201079Y165599D01*
X201157Y165539D01*
X201230Y165471D01*
X201283Y165442D01*
X201331Y165405D01*
X201421Y165365D01*
X201508Y165317D01*
X201567Y165302D01*
X201622Y165278D01*
X201720Y165263D01*
X201816Y165238D01*
X201916Y165232D01*
X201936Y165228D01*
X201949Y165230D01*
X201977Y165228D01*
X210918Y165228D01*
X212853Y163293D01*
X212853Y144827D01*
X212865Y144728D01*
X212868Y144629D01*
X212885Y144571D01*
X212893Y144511D01*
X212929Y144419D01*
X212957Y144324D01*
X212987Y144272D01*
X213010Y144215D01*
X213068Y144135D01*
X213118Y144050D01*
X213184Y143975D01*
X213196Y143958D01*
X213206Y143950D01*
X213224Y143929D01*
X214288Y142866D01*
X215139Y140812D01*
X215139Y138588D01*
X215064Y138408D01*
X215051Y138360D01*
X215030Y138315D01*
X215009Y138207D01*
X214980Y138101D01*
X214979Y138051D01*
X214970Y138002D01*
X214977Y137893D01*
X214975Y137783D01*
X214987Y137735D01*
X214990Y137685D01*
X215023Y137581D01*
X215049Y137474D01*
X215072Y137430D01*
X215088Y137383D01*
X215146Y137290D01*
X215198Y137193D01*
X215231Y137156D01*
X215258Y137114D01*
X215338Y137039D01*
X215412Y136957D01*
X215453Y136930D01*
X215489Y136896D01*
X215586Y136843D01*
X215677Y136783D01*
X215724Y136766D01*
X215768Y136742D01*
X215874Y136715D01*
X215978Y136679D01*
X216028Y136675D01*
X216076Y136663D01*
X216237Y136653D01*
X304058Y136653D01*
X304181Y136668D01*
X304304Y136677D01*
X304355Y136690D01*
X304374Y136693D01*
X304393Y136700D01*
X304459Y136718D01*
X305053Y136916D01*
X305312Y136787D01*
X305363Y136769D01*
X305411Y136742D01*
X305512Y136716D01*
X305612Y136681D01*
X305666Y136677D01*
X305719Y136663D01*
X305879Y136653D01*
X306168Y136653D01*
X306611Y136210D01*
X306709Y136134D01*
X306801Y136053D01*
X306847Y136027D01*
X306862Y136015D01*
X306882Y136007D01*
X306941Y135972D01*
X314404Y132241D01*
X314540Y132193D01*
X314674Y132142D01*
X314690Y132140D01*
X314704Y132135D01*
X314847Y132123D01*
X314990Y132107D01*
X315006Y132109D01*
X315021Y132107D01*
X315162Y132131D01*
X315305Y132151D01*
X315325Y132158D01*
X315335Y132160D01*
X315351Y132167D01*
X315457Y132203D01*
X316388Y132589D01*
X318612Y132589D01*
X320666Y131738D01*
X322238Y130166D01*
X323089Y128112D01*
X323089Y125888D01*
X322238Y123834D01*
X320666Y122262D01*
X318612Y121411D01*
X316388Y121411D01*
X314334Y122262D01*
X312762Y123834D01*
X311981Y125720D01*
X311954Y125767D01*
X311936Y125818D01*
X311876Y125905D01*
X311824Y125996D01*
X311786Y126035D01*
X311755Y126080D01*
X311676Y126149D01*
X311602Y126225D01*
X311556Y126253D01*
X311515Y126288D01*
X311376Y126369D01*
X304288Y129913D01*
X304237Y129931D01*
X304189Y129958D01*
X304088Y129984D01*
X303988Y130019D01*
X303934Y130023D01*
X303881Y130037D01*
X303721Y130047D01*
X217794Y130047D01*
X217696Y130035D01*
X217597Y130032D01*
X217538Y130015D01*
X217478Y130007D01*
X217386Y129971D01*
X217291Y129943D01*
X217239Y129913D01*
X217183Y129890D01*
X217103Y129832D01*
X217017Y129782D01*
X216942Y129716D01*
X216925Y129704D01*
X216917Y129694D01*
X216896Y129676D01*
X214093Y126872D01*
X207888Y126872D01*
X207750Y126855D01*
X207611Y126842D01*
X207592Y126835D01*
X207572Y126832D01*
X207443Y126781D01*
X207312Y126734D01*
X207295Y126723D01*
X207277Y126715D01*
X207164Y126634D01*
X207049Y126556D01*
X207036Y126540D01*
X207019Y126529D01*
X206930Y126421D01*
X206838Y126317D01*
X206829Y126299D01*
X206816Y126284D01*
X206757Y126158D01*
X206694Y126034D01*
X206689Y126014D01*
X206681Y125996D01*
X206655Y125860D01*
X206624Y125724D01*
X206625Y125703D01*
X206621Y125684D01*
X206630Y125545D01*
X206634Y125406D01*
X206640Y125386D01*
X206641Y125366D01*
X206684Y125234D01*
X206722Y125100D01*
X206733Y125083D01*
X206739Y125064D01*
X206813Y124946D01*
X206884Y124826D01*
X206902Y124805D01*
X206909Y124795D01*
X206924Y124781D01*
X206990Y124706D01*
X213721Y117974D01*
X213800Y117914D01*
X213872Y117846D01*
X213925Y117817D01*
X213973Y117780D01*
X214064Y117740D01*
X214150Y117692D01*
X214209Y117677D01*
X214264Y117653D01*
X214362Y117638D01*
X214458Y117613D01*
X214558Y117607D01*
X214579Y117603D01*
X214591Y117605D01*
X214619Y117603D01*
X309343Y117603D01*
X316210Y110735D01*
X316289Y110675D01*
X316361Y110607D01*
X316414Y110578D01*
X316462Y110541D01*
X316553Y110501D01*
X316639Y110453D01*
X316698Y110438D01*
X316753Y110414D01*
X316851Y110399D01*
X316947Y110374D01*
X317047Y110368D01*
X317068Y110364D01*
X317080Y110366D01*
X317108Y110364D01*
X318612Y110364D01*
X320666Y109513D01*
X322238Y107941D01*
X323089Y105887D01*
X323089Y103663D01*
X322238Y101609D01*
X320666Y100037D01*
X318612Y99186D01*
X316388Y99186D01*
G37*
%LPD*%
%LPC*%
G36*
X181876Y242569D02*
X181876Y242569D01*
X177675Y244309D01*
X174459Y247525D01*
X172719Y251726D01*
X172719Y256274D01*
X174459Y260475D01*
X177675Y263691D01*
X181876Y265431D01*
X186424Y265431D01*
X190625Y263691D01*
X193841Y260475D01*
X195581Y256274D01*
X195581Y251726D01*
X193841Y247525D01*
X190625Y244309D01*
X186424Y242569D01*
X181876Y242569D01*
G37*
%LPD*%
%LPC*%
G36*
X207276Y242569D02*
X207276Y242569D01*
X203075Y244309D01*
X199859Y247525D01*
X198119Y251726D01*
X198119Y256274D01*
X199859Y260475D01*
X203075Y263691D01*
X207276Y265431D01*
X211824Y265431D01*
X216025Y263691D01*
X219241Y260475D01*
X220981Y256274D01*
X220981Y251726D01*
X219241Y247525D01*
X216025Y244309D01*
X211824Y242569D01*
X207276Y242569D01*
G37*
%LPD*%
%LPC*%
G36*
X29476Y242569D02*
X29476Y242569D01*
X25275Y244309D01*
X22059Y247525D01*
X20319Y251726D01*
X20319Y256274D01*
X22059Y260475D01*
X25275Y263691D01*
X29476Y265431D01*
X34024Y265431D01*
X38225Y263691D01*
X41441Y260475D01*
X43181Y256274D01*
X43181Y251726D01*
X41441Y247525D01*
X38225Y244309D01*
X34024Y242569D01*
X29476Y242569D01*
G37*
%LPD*%
%LPC*%
G36*
X56038Y67436D02*
X56038Y67436D01*
X53984Y68287D01*
X52412Y69859D01*
X51561Y71913D01*
X51561Y74137D01*
X52412Y76191D01*
X53984Y77763D01*
X56038Y78614D01*
X57542Y78614D01*
X57640Y78626D01*
X57739Y78629D01*
X57798Y78646D01*
X57858Y78654D01*
X57950Y78690D01*
X58045Y78718D01*
X58097Y78748D01*
X58153Y78771D01*
X58233Y78829D01*
X58319Y78879D01*
X58394Y78945D01*
X58411Y78957D01*
X58419Y78967D01*
X58440Y78985D01*
X69015Y89561D01*
X69088Y89655D01*
X69167Y89744D01*
X69185Y89780D01*
X69210Y89812D01*
X69258Y89922D01*
X69312Y90028D01*
X69320Y90067D01*
X69337Y90104D01*
X69355Y90222D01*
X69381Y90338D01*
X69380Y90378D01*
X69386Y90418D01*
X69375Y90537D01*
X69372Y90656D01*
X69360Y90695D01*
X69357Y90735D01*
X69316Y90847D01*
X69283Y90961D01*
X69263Y90996D01*
X69249Y91034D01*
X69182Y91133D01*
X69122Y91235D01*
X69082Y91280D01*
X69070Y91297D01*
X69055Y91311D01*
X69015Y91356D01*
X68287Y92084D01*
X67436Y94138D01*
X67436Y96362D01*
X68287Y98416D01*
X69859Y99988D01*
X71913Y100839D01*
X74137Y100839D01*
X76191Y99988D01*
X77763Y98416D01*
X78614Y96362D01*
X78614Y94138D01*
X77763Y92084D01*
X76700Y91021D01*
X76639Y90943D01*
X76571Y90870D01*
X76551Y90835D01*
X76526Y90805D01*
X76518Y90787D01*
X76505Y90770D01*
X76465Y90679D01*
X76417Y90592D01*
X76407Y90551D01*
X76391Y90517D01*
X76388Y90499D01*
X76378Y90478D01*
X76363Y90380D01*
X76338Y90284D01*
X76334Y90218D01*
X76331Y90205D01*
X76332Y90191D01*
X76332Y90184D01*
X76328Y90164D01*
X76330Y90151D01*
X76328Y90123D01*
X76328Y87532D01*
X63110Y74315D01*
X63050Y74236D01*
X62982Y74164D01*
X62953Y74111D01*
X62916Y74063D01*
X62876Y73972D01*
X62828Y73886D01*
X62813Y73827D01*
X62789Y73772D01*
X62774Y73674D01*
X62749Y73578D01*
X62743Y73478D01*
X62739Y73457D01*
X62741Y73445D01*
X62739Y73417D01*
X62739Y71913D01*
X61888Y69859D01*
X60316Y68287D01*
X58262Y67436D01*
X56038Y67436D01*
G37*
%LPD*%
%LPC*%
G36*
X85089Y251461D02*
X85089Y251461D01*
X94235Y251461D01*
X94195Y251204D01*
X93614Y249417D01*
X92761Y247743D01*
X91656Y246222D01*
X90328Y244894D01*
X88807Y243789D01*
X87133Y242936D01*
X85346Y242355D01*
X85089Y242315D01*
X85089Y251461D01*
G37*
%LPD*%
D10*
X57150Y254000D03*
X311150Y254000D03*
X285750Y254000D03*
X260350Y254000D03*
X234950Y254000D03*
X209550Y254000D03*
X184150Y254000D03*
X158750Y254000D03*
X133350Y254000D03*
X31750Y254000D03*
X82550Y254000D03*
D11*
X66675Y247650D02*
X66675Y152400D01*
X66675Y247650D02*
X60325Y254000D01*
X57150Y254000D01*
X285750Y165100D02*
X311150Y146050D01*
X285750Y165100D02*
X228600Y165100D01*
X180975Y171450D02*
X174625Y177800D01*
X180975Y171450D02*
X222250Y171450D01*
X228600Y165100D01*
X130175Y177800D02*
X82550Y130175D01*
X130175Y177800D02*
X174625Y177800D01*
D12*
X66675Y152400D03*
X311150Y146050D03*
X228600Y165100D03*
X174625Y177800D03*
X82550Y130175D03*
D11*
X73025Y95250D02*
X73025Y88900D01*
X57150Y73025D01*
D12*
X57150Y73025D03*
X73025Y95250D03*
X174625Y238125D03*
X228600Y177800D03*
X196850Y107950D03*
X228600Y123825D03*
X50800Y142875D03*
X82550Y171450D03*
X215900Y63500D03*
X69850Y44450D03*
X317500Y165100D03*
D11*
X228600Y127000D02*
X228600Y123825D01*
X222250Y254000D02*
X222250Y256526D01*
X184150Y241300D02*
X181624Y241300D01*
X44450Y254000D02*
X44450Y256526D01*
X120650Y241300D02*
X133350Y254000D01*
X120650Y241300D02*
X107950Y241300D01*
X92075Y225425D01*
X92075Y171450D01*
X98425Y171450D01*
D12*
X98425Y171450D03*
D11*
X304800Y133350D02*
X317500Y127000D01*
X304800Y133350D02*
X215900Y133350D01*
X212725Y130175D01*
X206375Y130175D01*
X187325Y149225D01*
X187325Y152400D01*
D12*
X317500Y127000D03*
X187325Y152400D03*
D11*
X161925Y130175D02*
X146050Y114300D01*
X161925Y130175D02*
X161925Y152400D01*
D12*
X146050Y114300D03*
X161925Y152400D03*
D11*
X209550Y161925D02*
X209550Y139700D01*
X209550Y161925D02*
X196850Y161925D01*
D12*
X209550Y139700D03*
X196850Y161925D03*
D11*
X146050Y152400D02*
X133350Y139700D01*
X307975Y114300D02*
X317500Y104775D01*
X307975Y114300D02*
X212725Y114300D01*
X165100Y161925D01*
X155575Y161925D01*
X146050Y152400D01*
D12*
X133350Y139700D03*
X146050Y152400D03*
X317500Y104775D03*
D11*
X184150Y193675D02*
X177800Y187325D01*
X127000Y187325D01*
X73025Y133350D01*
X31750Y133350D01*
D12*
X184150Y193675D03*
X31750Y133350D03*
D11*
X101600Y222250D02*
X101600Y225425D01*
X111125Y234950D01*
X142875Y234950D01*
X158750Y250825D01*
X158750Y254000D01*
D12*
X101600Y222250D03*
D11*
X146050Y203200D02*
X149225Y200025D01*
X146050Y203200D02*
X120650Y203200D01*
X111125Y212725D01*
X111125Y225425D01*
X127000Y225425D01*
X130175Y228600D01*
X212725Y228600D01*
X234950Y250825D01*
X234950Y254000D01*
D12*
X149225Y200025D03*
D11*
X133350Y219075D02*
X136525Y222250D01*
X231775Y222250D01*
X260350Y250825D01*
X260350Y254000D01*
D12*
X133350Y219075D03*
D11*
X127000Y209550D02*
X120650Y215900D01*
X127000Y209550D02*
X244475Y209550D01*
X285750Y250825D01*
X285750Y254000D01*
D12*
X120650Y215900D03*
D11*
X165100Y200025D02*
X168275Y203200D01*
X263525Y203200D01*
X311150Y250825D01*
X311150Y254000D01*
D12*
X165100Y200025D03*
M02*
