M48
;GenerationSoftware,Autodesk,EAGLE,9.6.2*%
;CreationDate,2020-12-05T14:13:16Z*%
FMAT,2
ICI,OFF
METRIC,TZ,000.000
T2C0.305
T1C1.016
%
G90
M71
T1
X8255Y25400
X3175Y25400
X13335Y25400
X15875Y25400
X18415Y25400
X20955Y25400
X23495Y25400
X26035Y25400
X28575Y25400
X31115Y25400
X5715Y25400
T2
X5080Y14287
X8255Y17145
X21590Y6350
X6985Y4445
X31750Y16510
X9843Y17145
X31750Y12700
X18733Y15240
X14605Y11430
X16192Y15240
X20955Y13970
X6667Y15240
X13335Y13970
X14605Y15240
X31750Y10478
X18415Y19368
X3175Y13335
X10160Y22225
X14922Y20003
X13335Y21907
X12065Y21590
X16510Y20003
X22860Y12382
X19685Y10795
X22860Y17780
X17463Y23812
X7302Y9525
X5715Y7302
X8255Y13017
X17463Y17780
X22860Y16510
X31115Y14605
X19685Y16192
M30