G04 EAGLE Gerber RS-274X export*
G75*
%MOMM*%
%FSLAX34Y34*%
%LPD*%
%IN*%
%IPPOS*%
%AMOC8*
5,1,8,0,0,1.08239X$1,22.5*%
G01*
%ADD10C,0.254000*%


D10*
X0Y25400D02*
X97Y23186D01*
X386Y20989D01*
X865Y18826D01*
X1532Y16713D01*
X2380Y14666D01*
X3403Y12700D01*
X4594Y10831D01*
X5942Y9073D01*
X7440Y7440D01*
X9073Y5942D01*
X10831Y4594D01*
X12700Y3403D01*
X14666Y2380D01*
X16713Y1532D01*
X18826Y865D01*
X20989Y386D01*
X23186Y97D01*
X25400Y0D01*
X317500Y0D01*
X319714Y97D01*
X321911Y386D01*
X324074Y865D01*
X326187Y1532D01*
X328235Y2380D01*
X330200Y3403D01*
X332069Y4594D01*
X333827Y5942D01*
X335461Y7440D01*
X336958Y9073D01*
X338306Y10831D01*
X339497Y12700D01*
X340520Y14666D01*
X341368Y16713D01*
X342035Y18826D01*
X342514Y20989D01*
X342803Y23186D01*
X342900Y25400D01*
X342900Y254000D01*
X342803Y256214D01*
X342514Y258411D01*
X342035Y260574D01*
X341368Y262687D01*
X340520Y264735D01*
X339497Y266700D01*
X338306Y268569D01*
X336958Y270327D01*
X335461Y271961D01*
X333827Y273458D01*
X332069Y274806D01*
X330200Y275997D01*
X328235Y277020D01*
X326187Y277868D01*
X324074Y278535D01*
X321911Y279014D01*
X319714Y279303D01*
X317500Y279400D01*
X25400Y279400D01*
X23186Y279303D01*
X20989Y279014D01*
X18826Y278535D01*
X16713Y277868D01*
X14666Y277020D01*
X12700Y275997D01*
X10831Y274806D01*
X9073Y273458D01*
X7440Y271961D01*
X5942Y270327D01*
X4594Y268569D01*
X3403Y266700D01*
X2380Y264735D01*
X1532Y262687D01*
X865Y260574D01*
X386Y258411D01*
X97Y256214D01*
X0Y254000D01*
X0Y25400D01*
M02*
