G04 EAGLE Gerber RS-274X export*
G75*
%MOMM*%
%FSLAX34Y34*%
%LPD*%
%INSilkscreen Top*%
%IPPOS*%
%AMOC8*
5,1,8,0,0,1.08239X$1,22.5*%
G01*
%ADD10C,0.152400*%
%ADD11C,0.076200*%
%ADD12C,0.254000*%


D10*
X45212Y7112D02*
X45212Y23382D01*
X53347Y23382D01*
X56059Y20670D01*
X56059Y17959D01*
X53347Y15247D01*
X56059Y12535D01*
X56059Y9824D01*
X53347Y7112D01*
X45212Y7112D01*
X45212Y15247D02*
X53347Y15247D01*
X61584Y9824D02*
X61584Y23382D01*
X61584Y9824D02*
X64295Y7112D01*
X69719Y7112D01*
X72430Y9824D01*
X72430Y23382D01*
X83378Y23382D02*
X83378Y7112D01*
X77955Y23382D02*
X88802Y23382D01*
X248412Y23382D02*
X248412Y7112D01*
X248412Y23382D02*
X256547Y23382D01*
X259259Y20670D01*
X259259Y15247D01*
X256547Y12535D01*
X248412Y12535D01*
X253835Y12535D02*
X259259Y7112D01*
X272919Y23382D02*
X275630Y20670D01*
X272919Y23382D02*
X267495Y23382D01*
X264784Y20670D01*
X264784Y17959D01*
X267495Y15247D01*
X272919Y15247D01*
X275630Y12535D01*
X275630Y9824D01*
X272919Y7112D01*
X267495Y7112D01*
X264784Y9824D01*
X286578Y7112D02*
X286578Y23382D01*
X281155Y23382D02*
X292002Y23382D01*
D11*
X28559Y238387D02*
X22289Y238387D01*
X22289Y233684D01*
X25424Y235252D01*
X26992Y235252D01*
X28559Y233684D01*
X28559Y230549D01*
X26992Y228981D01*
X23856Y228981D01*
X22289Y230549D01*
X31644Y232116D02*
X31644Y238387D01*
X31644Y232116D02*
X34779Y228981D01*
X37914Y232116D01*
X37914Y238387D01*
X47689Y236819D02*
X49256Y238387D01*
X52392Y238387D01*
X53959Y236819D01*
X53959Y235252D01*
X52392Y233684D01*
X50824Y233684D01*
X52392Y233684D02*
X53959Y232116D01*
X53959Y230549D01*
X52392Y228981D01*
X49256Y228981D01*
X47689Y230549D01*
X57044Y232116D02*
X57044Y238387D01*
X57044Y232116D02*
X60179Y228981D01*
X63314Y232116D01*
X63314Y238387D01*
X73089Y236819D02*
X73089Y230549D01*
X73089Y236819D02*
X74656Y238387D01*
X77792Y238387D01*
X79359Y236819D01*
X79359Y230549D01*
X77792Y228981D01*
X74656Y228981D01*
X73089Y230549D01*
X79359Y236819D01*
X82444Y238387D02*
X82444Y232116D01*
X85579Y228981D01*
X88714Y232116D01*
X88714Y238387D01*
X111189Y238387D02*
X111189Y228981D01*
X111189Y238387D02*
X115892Y238387D01*
X117459Y236819D01*
X117459Y233684D01*
X115892Y232116D01*
X111189Y232116D01*
X120544Y228981D02*
X120544Y238387D01*
X120544Y228981D02*
X125247Y228981D01*
X126814Y230549D01*
X126814Y236819D01*
X125247Y238387D01*
X120544Y238387D01*
X129899Y238387D02*
X136170Y238387D01*
X136170Y236819D01*
X129899Y230549D01*
X129899Y228981D01*
X308039Y228981D02*
X308039Y238387D01*
X312742Y238387D01*
X314309Y236819D01*
X314309Y233684D01*
X312742Y232116D01*
X308039Y232116D01*
X317394Y228981D02*
X317394Y238387D01*
X317394Y228981D02*
X322097Y228981D01*
X323664Y230549D01*
X323664Y236819D01*
X322097Y238387D01*
X317394Y238387D01*
X326749Y236819D02*
X326749Y230549D01*
X326749Y236819D02*
X328317Y238387D01*
X331452Y238387D01*
X333020Y236819D01*
X333020Y230549D01*
X331452Y228981D01*
X328317Y228981D01*
X326749Y230549D01*
X333020Y236819D01*
D12*
X304800Y234950D02*
X139700Y234950D01*
M02*
